<?xml version="1.0" encoding="UTF-8"?>
<svg version="1.1" xmlns="http://www.w3.org/2000/svg" width="453" height="107">
<path d="M0 0 C12.76575594 9.60239413 19.7435226 22.24683538 22 38 C23.44821328 51.43751996 18.85760339 65.22799864 11 76 C2.89629074 85.9751167 -8.34323716 92.75551635 -21 95 C-37.56758 96.65133785 -51.0712894 93.37808771 -64.41015625 83.15234375 C-74.0380323 75.06749959 -79.29826795 65.23684175 -82 53 C-83.44717241 35.83354102 -80.4723668 22.48157953 -70.15234375 8.49609375 C-52.56900095 -11.89547803 -21.91840893 -14.68726229 0 0 Z " fill="#FBFEFD" transform="translate(84,11)"/>
<path d="M0 0 C4.14859125 2.3356906 6.94198023 5.65092789 9.75 9.4375 C10.430625 8.715625 11.11125 7.99375 11.8125 7.25 C16.7127833 2.3497167 21.7369151 -1.63194693 28.875 -1.875 C34.92484837 -1.77662848 40.05056337 0.00339262 44.578125 4.0859375 C49.50569639 9.56367463 51.48314691 14.89891946 51.3046875 22.28515625 C48.16898783 40.10564661 28.28776286 56.07062623 14.8125 66.6875 C11.75 68.4375 11.75 68.4375 9.0625 68.5 C6.20677624 67.1879107 4.64035916 65.95797888 2.75 63.4375 C2.4375 60.75 2.4375 60.75 2.75 58.4375 C4.73216903 56.45533097 8.58320059 57.02699076 11.3125 56.875 C13.766875 56.730625 16.22125 56.58625 18.75 56.4375 C18.42 50.8275 18.09 45.2175 17.75 39.4375 C14.4296875 39.2421875 11.109375 39.046875 7.7890625 38.8515625 C4.75 38.4375 4.75 38.4375 2.75 36.4375 C2.37109375 33.43359375 2.37109375 33.43359375 2.1875 29.875 C2.32774774 25.83663054 2.32774774 25.83663054 0.75 22.4375 C-1.43639453 22.36491054 -3.62500389 22.35376217 -5.8125 22.375 C-7.01003906 22.38402344 -8.20757812 22.39304687 -9.44140625 22.40234375 C-10.83166016 22.41974609 -10.83166016 22.41974609 -12.25 22.4375 C-12.31058594 23.42492187 -12.37117188 24.41234375 -12.43359375 25.4296875 C-12.51738281 26.71101563 -12.60117187 27.99234375 -12.6875 29.3125 C-12.76871094 30.58867188 -12.84992187 31.86484375 -12.93359375 33.1796875 C-13.25 36.4375 -13.25 36.4375 -14.25 38.4375 C-19.38512167 39.13378768 -19.38512167 39.13378768 -22.25 38.4375 C-24.55948293 36.08217126 -25.90357306 33.42782029 -27.25 30.4375 C-27.61609375 29.6434375 -27.9821875 28.849375 -28.359375 28.03125 C-30.40860172 22.06332656 -30.27997462 14.87248596 -27.75 9.0625 C-22.07446129 -0.68152524 -10.32087942 -4.65334448 0 0 Z " fill="#29AAD9" transform="translate(43.25,24.5625)"/>
<path d="M0 0 C15 0 15 0 19.0546875 3.61328125 C20.04860004 5.14610943 20.98900394 6.7148657 21.875 8.3125 C22.61943359 9.49102539 22.61943359 9.49102539 23.37890625 10.69335938 C25.28769966 13.76573233 26.85346951 16.56040854 28 20 C28.66 20 29.32 20 30 20 C30.22558594 19.31292969 30.45117188 18.62585938 30.68359375 17.91796875 C32.3330057 14.26185383 34.56732467 11.42882223 37.0625 8.3125 C40.32558304 4.35070369 40.32558304 4.35070369 43 0 C47.95 0 52.9 0 58 0 C58 17.82 58 35.64 58 54 C53.38 54 48.76 54 44 54 C43.67 43.11 43.34 32.22 43 21 C38.38 26.94 33.76 32.88 29 39 C24 34 24 34 14 21 C13.67 31.89 13.34 42.78 13 54 C8.71 54 4.42 54 0 54 C0 36.18 0 18.36 0 0 Z " fill="#FEFEFE" transform="translate(120,25)"/>
<path d="M0 0 C3.96 0 7.92 0 12 0 C12.17323368 7.29561257 12.30016378 14.59002452 12.38452148 21.88720703 C12.41969124 24.36853899 12.46743632 26.84972623 12.52807617 29.33056641 C12.61314096 32.90042832 12.65272507 36.46837094 12.68359375 40.0390625 C12.71972275 41.14553131 12.75585175 42.25200012 12.79307556 43.39199829 C12.7968871 50.89389729 12.7968871 50.89389729 10.54226685 54.02337646 C4.42671444 59.5052125 -2.07193026 60.2674839 -10.0625 59.875 C-15.28861011 59.28914307 -19.83576682 58.35145513 -24 55 C-29.70794675 47.844265 -29.55509793 39.74541081 -29 31 C-28.00959698 25.3756012 -25.53508637 21.66607256 -21.01171875 18.1953125 C-13.95091045 13.99995844 -7.66492734 15.05677898 0 17 C0 11.39 0 5.78 0 0 Z M-14 28 C-16.90992188 32.67478425 -16.61520326 37.67612563 -16 43 C-14.73680006 46.24790764 -14.73680006 46.24790764 -12 48 C-7.13318253 49.48597501 -4.62837692 49.31418846 0 47 C0 40.4 0 33.8 0 27 C-4.70577972 25.43140676 -9.83666496 24.91604812 -14 28 Z " fill="#FEFEFE" transform="translate(260,21)"/>
<path d="M0 0 C1.56047445 0.00015913 3.12095416 0.00585397 4.68139648 0.01586914 C5.91115456 0.01799156 5.91115456 0.01799156 7.16575623 0.02015686 C9.79470406 0.0257725 12.42356797 0.0383276 15.05249023 0.05102539 C16.8304838 0.05603838 18.60847869 0.06060163 20.38647461 0.06469727 C24.75434569 0.07574701 29.12215371 0.09302208 33.48999023 0.11352539 C33.48999023 3.74352539 33.48999023 7.37352539 33.48999023 11.11352539 C25.56999023 11.11352539 17.64999023 11.11352539 9.48999023 11.11352539 C9.81999023 14.08352539 10.14999023 17.05352539 10.48999023 20.11352539 C10.15999023 20.77352539 9.82999023 21.43352539 9.48999023 22.11352539 C16.41999023 22.11352539 23.34999023 22.11352539 30.48999023 22.11352539 C30.48999023 25.74352539 30.48999023 29.37352539 30.48999023 33.11352539 C23.55999023 33.11352539 16.62999023 33.11352539 9.48999023 33.11352539 C9.81999023 36.08352539 10.14999023 39.05352539 10.48999023 42.11352539 C18.07999023 42.44352539 25.66999023 42.77352539 33.48999023 43.11352539 C33.48999023 46.74352539 33.48999023 50.37352539 33.48999023 54.11352539 C21.27999023 54.11352539 9.06999023 54.11352539 -3.51000977 54.11352539 C-3.67541279 46.58387083 -3.83778573 39.05428348 -3.9921875 31.52441406 C-4.04569912 28.9605732 -4.10103519 26.39676976 -4.15820312 23.83300781 C-4.23985919 20.15706456 -4.31504508 16.48103853 -4.38891602 12.80493164 C-4.42946861 11.07370811 -4.42946861 11.07370811 -4.47084045 9.30751038 C-4.49093674 8.24648605 -4.51103302 7.18546173 -4.53173828 6.09228516 C-4.55172379 5.15296646 -4.57170929 4.21364777 -4.59230042 3.24586487 C-4.4524173 -0.37882752 -3.75493105 0.12144696 0 0 Z " fill="#FEFEFE" transform="translate(286.510009765625,24.886474609375)"/>
<path d="M0 0 C4.14859125 2.3356906 6.94198023 5.65092789 9.75 9.4375 C10.430625 8.715625 11.11125 7.99375 11.8125 7.25 C16.7127833 2.3497167 21.7369151 -1.63194693 28.875 -1.875 C34.92484837 -1.77662848 40.05056337 0.00339262 44.578125 4.0859375 C49.50724162 9.56539238 51.44201585 14.87884565 51.33203125 22.2578125 C49.71861731 31.07203364 43.47720491 38.80758328 37.75 45.4375 C37.42 44.7775 37.09 44.1175 36.75 43.4375 C37.389375 42.32375 38.02875 41.21 38.6875 40.0625 C41.51108594 34.67112336 41.57080354 29.39251347 40.75 23.4375 C38.99622296 19.59268112 37.52861729 17.99365521 34.125 15.5625 C27.48274834 13.34841611 20.17476438 13.62666558 13.75 16.4375 C12.36141128 18.86635788 12.36141128 18.86635788 11.75 21.4375 C11.09 22.0975 10.43 22.7575 9.75 23.4375 C9.193125 22.509375 8.63625 21.58125 8.0625 20.625 C5.69299129 17.35892042 4.31515352 16.17410773 0.75 14.4375 C-4.75196727 13.61553719 -9.70282507 13.75891451 -14.8125 16 C-18.99376187 20.18126187 -20.40426421 24.30426414 -20.5 30.125 C-20.43776388 33.04491138 -20.03722252 35.62508407 -19.25 38.4375 C-21.046875 38.26953125 -21.046875 38.26953125 -23.25 37.4375 C-28.01746995 30.99704174 -30.17358133 24.15952818 -29.6953125 16.1953125 C-28.65907439 9.77790808 -26.30667917 5.98786885 -21.1875 2 C-14.85534702 -2.46046093 -7.13479868 -3.21684565 0 0 Z " fill="#66EAB7" transform="translate(43.25,24.5625)"/>
<path d="M0 0 C3.27775207 2.37797699 4.46122377 3.72442264 6.1875 7.3125 C6.80121178 11.9822719 6.65115721 16.66908001 6.625 21.375 C6.6549707 23.2940918 6.6549707 23.2940918 6.68554688 25.25195312 C6.68490234 26.47978516 6.68425781 27.70761719 6.68359375 28.97265625 C6.68637329 30.65307007 6.68637329 30.65307007 6.68920898 32.36743164 C6.0782442 35.95383949 4.99762854 37.08094643 2.1875 39.3125 C-4.53607248 42.79293752 -13.95634293 43.19572563 -21.3125 41.6875 C-25.7417439 39.9474399 -29.60269321 37.73211358 -31.8125 33.3125 C-32.3928055 28.23897188 -32.97130103 23.00634202 -29.75 18.75 C-24.86042443 14.69269261 -20.7396642 14.08550968 -14.5625 14.625 C-11.76893285 14.95901346 -9.49715382 15.41761539 -6.8125 16.3125 C-6.91863836 13.86025306 -6.91863836 13.86025306 -7.8125 11.3125 C-11.59896058 8.70930835 -15.2839172 9.3160639 -19.62890625 9.828125 C-21.85952172 10.22990363 -21.85952172 10.22990363 -23.90234375 11.359375 C-25.8125 12.3125 -25.8125 12.3125 -28.8125 12.3125 C-28.8125 8.6825 -28.8125 5.0525 -28.8125 1.3125 C-20.55596714 -2.81576643 -8.59692033 -3.92364082 0 0 Z M-18.8125 25.3125 C-19.22916667 27.8125 -19.22916667 27.8125 -18.8125 30.3125 C-17.00056994 32.55574836 -17.00056994 32.55574836 -14.4296875 32.5078125 C-13.52476562 32.48460937 -12.61984375 32.46140625 -11.6875 32.4375 C-10.77742188 32.41945313 -9.86734375 32.40140625 -8.9296875 32.3828125 C-8.23101562 32.35960937 -7.53234375 32.33640625 -6.8125 32.3125 C-6.8125 29.6725 -6.8125 27.0325 -6.8125 24.3125 C-11.03789566 22.19980217 -15.00850662 22.77650441 -18.8125 25.3125 Z " fill="#FDFDFD" transform="translate(359.8125,38.6875)"/>
<path d="M0 0 C5.94164295 5.2343045 7.70382527 10.66432564 8.625 18.3125 C8.625 19.9625 8.625 21.6125 8.625 23.3125 C-0.285 23.3125 -9.195 23.3125 -18.375 23.3125 C-15.97105078 28.12768958 -15.97105078 28.12768958 -13.3125 29.6875 C-7.32615462 30.96119051 -1.29322839 29.49614568 4.625 28.3125 C4.625 31.9425 4.625 35.5725 4.625 39.3125 C-3.45720293 42.54538117 -12.20138705 43.67679739 -20.44140625 40.3203125 C-25.14770316 37.86733351 -29.00298386 34.83505895 -30.90234375 29.66015625 C-32.46021356 21.92230702 -32.9270042 12.79736689 -28.6328125 5.890625 C-25.02392115 1.36269921 -21.33268911 -1.32380332 -15.5859375 -2.46875 C-9.94215372 -3.02714557 -5.09007449 -2.54503725 0 0 Z M-17.375 10.125 C-18.58287988 12.36636471 -18.58287988 12.36636471 -18.375 15.3125 C-13.755 15.3125 -9.135 15.3125 -4.375 15.3125 C-5.70417961 9.83424919 -5.70417961 9.83424919 -7.375 8.3125 C-12.87803568 7.61539357 -12.87803568 7.61539357 -17.375 10.125 Z " fill="#FDFDFD" transform="translate(444.375,38.6875)"/>
<path d="M0 0 C5.94164295 5.2343045 7.70382527 10.66432564 8.625 18.3125 C8.625 19.9625 8.625 21.6125 8.625 23.3125 C-0.285 23.3125 -9.195 23.3125 -18.375 23.3125 C-15.97105078 28.12768958 -15.97105078 28.12768958 -13.3125 29.6875 C-7.32615462 30.96119051 -1.29322839 29.49614568 4.625 28.3125 C4.625 31.9425 4.625 35.5725 4.625 39.3125 C-3.45720293 42.54538117 -12.20138705 43.67679739 -20.44140625 40.3203125 C-25.14770316 37.86733351 -29.00298386 34.83505895 -30.90234375 29.66015625 C-32.46021356 21.92230702 -32.9270042 12.79736689 -28.6328125 5.890625 C-25.02392115 1.36269921 -21.33268911 -1.32380332 -15.5859375 -2.46875 C-9.94215372 -3.02714557 -5.09007449 -2.54503725 0 0 Z M-17.375 10.125 C-18.58287988 12.36636471 -18.58287988 12.36636471 -18.375 15.3125 C-13.755 15.3125 -9.135 15.3125 -4.375 15.3125 C-5.70417961 9.83424919 -5.70417961 9.83424919 -7.375 8.3125 C-12.87803568 7.61539357 -12.87803568 7.61539357 -17.375 10.125 Z " fill="#FDFDFD" transform="translate(217.375,38.6875)"/>
<path d="M0 0 C0 3.63 0 7.26 0 11 C-1.65 10.34 -3.3 9.68 -5 9 C-7.88211302 8.03929566 -9.69850044 7.89418117 -12.6875 7.9375 C-13.49574219 7.94652344 -14.30398438 7.95554687 -15.13671875 7.96484375 C-15.75160156 7.97644531 -16.36648438 7.98804688 -17 8 C-16.9493609 9.97100808 -16.9493609 9.97100808 -16 12 C-13.38904499 13.15155092 -13.38904499 13.15155092 -10.25 13.875 C-3.27153607 16.02669305 -3.27153607 16.02669305 -0.75 18.6875 C1.51644641 22.97755927 1.80832689 26.24668647 1 31 C-0.61533969 34.71528128 -2.45198569 37.03925525 -6 39 C-14.4259516 41.91800373 -22.74981949 41.2566502 -31 38 C-31 34.04 -31 30.08 -31 26 C-29.700625 26.66 -28.40125 27.32 -27.0625 28 C-22.12920794 30.22389674 -18.36028228 30.34033538 -13 30 C-13 29.01 -13 28.02 -13 27 C-13.79664063 26.79246094 -14.59328125 26.58492187 -15.4140625 26.37109375 C-26.36108248 23.18820108 -26.36108248 23.18820108 -30.0625 18.0546875 C-31.91009646 14.00537193 -32.0335592 10.29960627 -31 6 C-28.86720317 2.05360042 -26.24520776 -0.33395864 -22.3125 -2.4375 C-14.17482775 -3.81936887 -7.53088515 -3.41021214 0 0 Z " fill="#FDFDFD" transform="translate(406,40)"/>
<path d="M0 0 C2.29160319 -0.02692484 4.58329546 -0.04636124 6.875 -0.0625 C8.15117188 -0.07410156 9.42734375 -0.08570313 10.7421875 -0.09765625 C14 0 14 0 16 1 C16.4140625 3.72265625 16.4140625 3.72265625 16.625 7.0625 C16.69976562 8.16722656 16.77453125 9.27195312 16.8515625 10.41015625 C16.90054688 11.26480469 16.94953125 12.11945313 17 13 C17.66 13 18.32 13 19 13 C19.33 12.34 19.66 11.68 20 11 C20.5775 11.33 21.155 11.66 21.75 12 C24.19883862 13.27075898 24.19883862 13.27075898 28 13 C28 11.68 28 10.36 28 9 C28.99 9 29.98 9 31 9 C31.33 8.01 31.66 7.02 32 6 C32.66 6.33 33.32 6.66 34 7 C28.21987328 17.33197652 17.73592473 25.50938352 8 32 C4.79502756 31.83564244 3.25538082 31.19326116 0.6875 29.25 C-1.31858838 26.5752155 -1.44173101 25.26880947 -1 22 C0.98216903 20.01783097 4.83320059 20.58949076 7.5625 20.4375 C10.016875 20.293125 12.47125 20.14875 15 20 C14.67 14.39 14.34 8.78 14 3 C10.8134375 2.814375 10.8134375 2.814375 7.5625 2.625 C3.94140625 2.4140625 3.94140625 2.4140625 1 2 C0.67 1.34 0.34 0.68 0 0 Z " fill="#40ABD2" transform="translate(47,61)"/>
<path d="M0 0 C4.57052974 1.79556526 7.0613012 4.94574611 9.078125 9.359375 C11.20768452 15.45929972 11.02814144 20.69477247 8.38671875 26.6171875 C5.1621853 32.56422655 1.42145325 37.88164519 -3 43 C-3.33 42.34 -3.66 41.68 -4 41 C-3.22265625 39.0546875 -3.22265625 39.0546875 -2.0625 36.875 C-1.68222656 36.15054688 -1.30195312 35.42609375 -0.91015625 34.6796875 C-0.45962891 33.84824219 -0.45962891 33.84824219 0 33 C0.99 33 1.98 33 3 33 C3.4640625 31.2984375 3.4640625 31.2984375 3.9375 29.5625 C5 26 5 26 6 25 C6.35840222 22.67038557 6.68848712 20.33634657 7 18 C7.22171875 17.19433594 7.4434375 16.38867188 7.671875 15.55859375 C8.08312689 12.35180817 7.37780231 11.06760219 5.75 8.3125 C5.09257813 7.16201172 5.09257813 7.16201172 4.421875 5.98828125 C2.98942129 3.73718473 2.98942129 3.73718473 0 2 C0 1.34 0 0.68 0 0 Z " fill="#89E6C2" transform="translate(84,27)"/>
<path d="M0 0 C3.96 0 7.92 0 12 0 C12.33 1.32 12.66 2.64 13 4 C12.01 4 11.02 4 10 4 C10 4.66 10 5.32 10 6 C9.01 6 8.02 6 7 6 C7.33 6.66 7.66 7.32 8 8 C4.85375007 8.26218749 3.38162983 8.24754367 0.6875 6.5 C0.130625 6.005 -0.42625 5.51 -1 5 C-0.67 3.35 -0.34 1.7 0 0 Z " fill="#28A9DC" transform="translate(48,83)"/>
<path d="M0 0 C0.66 0.33 1.32 0.66 2 1 C2 1.99 2 2.98 2 4 C5.96 4.33 9.92 4.66 14 5 C14 5.66 14 6.32 14 7 C7.565 7.495 7.565 7.495 1 8 C0.67 12.62 0.34 17.24 0 22 C-0.33 22 -0.66 22 -1 22 C-1 17.05 -1 12.1 -1 7 C-3.99332739 7.9977758 -4.94766315 8.7522025 -7 11 C-6.58485103 6.1565954 -4.53791301 4.18412171 -1 1 C-0.67 0.67 -0.34 0.34 0 0 Z " fill="#3DAFD1" transform="translate(30,39)"/>
<path d="M0 0 C4.75 0.875 4.75 0.875 7 2 C6.67 3.32 6.34 4.64 6 6 C7.32 6.33 8.64 6.66 10 7 C10 7.66 10 8.32 10 9 C10.66 9 11.32 9 12 9 C12 9.99 12 10.98 12 12 C12.99 12.33 13.98 12.66 15 13 C14.01 13.99 13.02 14.98 12 16 C11.443125 15.071875 10.88625 14.14375 10.3125 13.1875 C7.92074831 9.89076119 6.63331768 8.69554825 3 7 C-0.58228216 6.63881509 -0.58228216 6.63881509 -4.3125 6.8125 C-5.56675781 6.83957031 -6.82101563 6.86664063 -8.11328125 6.89453125 C-9.54220703 6.94673828 -9.54220703 6.94673828 -11 7 C-11 6.34 -11 5.68 -11 5 C-10.14535156 4.95101562 -9.29070313 4.90203125 -8.41015625 4.8515625 C-7.30542969 4.77679688 -6.20070313 4.70203125 -5.0625 4.625 C-3.40927734 4.52058594 -3.40927734 4.52058594 -1.72265625 4.4140625 C-0.37494141 4.20910156 -0.37494141 4.20910156 1 4 C1.33 3.34 1.66 2.68 2 2 C1.34 2 0.68 2 0 2 C0 1.34 0 0.68 0 0 Z " fill="#60E5C4" transform="translate(41,32)"/>
<path d="M0 0 C0 0.99 0 1.98 0 3 C-0.99 3 -1.98 3 -3 3 C-3.103125 3.556875 -3.20625 4.11375 -3.3125 4.6875 C-4 7 -4 7 -5.5 9.0625 C-7.76733382 13.50269539 -7.7499612 18.07682231 -8 23 C-8.33 23 -8.66 23 -9 23 C-9.51088528 14.48524526 -9.30283255 7.88099093 -3.48828125 1.28515625 C-2 0 -2 0 0 0 Z " fill="#7EE3BC" transform="translate(23,27)"/>
<path d="M0 0 C0.66 0.33 1.32 0.66 2 1 C-0.63482263 6.26964527 -4.79943911 9.97903554 -9 14 C-10 11 -10 11 -9.0625 8.8125 C-8.711875 8.214375 -8.36125 7.61625 -8 7 C-6.68 7 -5.36 7 -4 7 C-4 5.68 -4 4.36 -4 3 C-3.01 3 -2.02 3 -1 3 C-0.67 2.01 -0.34 1.02 0 0 Z " fill="#43AFCF" transform="translate(79,67)"/>
<path d="M0 0 C0.33 0 0.66 0 1 0 C1.06058594 0.92683594 1.12117188 1.85367188 1.18359375 2.80859375 C1.26738281 4.00613281 1.35117187 5.20367187 1.4375 6.4375 C1.51871094 7.63246094 1.59992187 8.82742187 1.68359375 10.05859375 C1.67656114 12.88570244 1.67656114 12.88570244 3 14 C5.18292774 14.23481693 7.37203174 14.41363323 9.5625 14.5625 C10.76003906 14.64628906 11.95757812 14.73007812 13.19140625 14.81640625 C14.11824219 14.87699219 15.04507813 14.93757813 16 15 C16 15.33 16 15.66 16 16 C13.52076199 16.02685095 11.0418116 16.04676547 8.5625 16.0625 C7.85544922 16.07087891 7.14839844 16.07925781 6.41992188 16.08789062 C4.61306441 16.09653588 2.80612397 16.05220011 1 16 C0 15 0 15 -0.09765625 11.62109375 C-0.09098369 10.22652923 -0.07902532 8.83198257 -0.0625 7.4375 C-0.05798828 6.72658203 -0.05347656 6.01566406 -0.04882812 5.28320312 C-0.03700864 3.52209987 -0.01907263 1.76103964 0 0 Z " fill="#CFF3FB" transform="translate(45,48)"/>
<path d="M0 0 C4.41889613 1.35021826 6.34345343 3.26115668 9 7 C8.01 7.495 8.01 7.495 7 8 C6.34 7.34 5.68 6.68 5 6 C3.35 6.66 1.7 7.32 0 8 C0 5.36 0 2.72 0 0 Z " fill="#2EB0CF" transform="translate(44,39)"/>
<path d="M0 0 C2.6875 -0.375 2.6875 -0.375 6 0 C8.06398076 1.823983 9.39041053 3.72763839 11 6 C3.575 5.01 3.575 5.01 -4 4 C-2.68 3.34 -1.36 2.68 0 2 C0 1.34 0 0.68 0 0 Z " fill="#5EE5C4" transform="translate(68,34)"/>
<path d="M0 0 C2.25245881 2.68841859 3.88213958 4.64641875 5 8 C5.99 8.33 6.98 8.66 8 9 C8.6875 11.0625 8.6875 11.0625 9 13 C7.171875 12.7734375 7.171875 12.7734375 5 12 C3.515625 10.0390625 3.515625 10.0390625 2.25 7.625 C1.82203125 6.83351563 1.3940625 6.04203125 0.953125 5.2265625 C0 3 0 3 0 0 Z " fill="#7CE0BE" transform="translate(15,50)"/>
<path d="M0 0 C1.98 0.99 1.98 0.99 4 2 C4 3.32 4 4.64 4 6 C4.66 6 5.32 6 6 6 C6 9.96 6 13.92 6 18 C5.67 18 5.34 18 5 18 C4.87625 16.0509375 4.87625 16.0509375 4.75 14.0625 C4.19661737 8.85905135 2.35320007 4.62978432 0 0 Z " fill="#E5FEF7" transform="translate(89,30)"/>
<path d="M0 0 C2.35694954 0.09031574 4.71153582 0.24688128 7.0625 0.4375 C8.35285156 0.53933594 9.64320312 0.64117187 10.97265625 0.74609375 C12.47119141 0.87177734 12.47119141 0.87177734 14 1 C14 1.33 14 1.66 14 2 C7.565 2.495 7.565 2.495 1 3 C1 4.98 1 6.96 1 9 C0.34 9 -0.32 9 -1 9 C-1.09765625 2.84765625 -1.09765625 2.84765625 -1 1 C-0.67 0.67 -0.34 0.34 0 0 Z " fill="#CBF0FC" transform="translate(46,80)"/>
<path d="M0 0 C0.33 0 0.66 0 1 0 C1.66 3.3 2.32 6.6 3 10 C4.32 10.33 5.64 10.66 7 11 C7 11.66 7 12.32 7 13 C5.35 13 3.7 13 2 13 C0.21590198 9.93753253 -0.22880021 7.77920727 -0.125 4.25 C-0.10695313 3.45078125 -0.08890625 2.6515625 -0.0703125 1.828125 C-0.04710938 1.22484375 -0.02390625 0.6215625 0 0 Z " fill="#3EAEC7" transform="translate(22,50)"/>
<path d="M0 0 C0.99 0 1.98 0 3 0 C1.6062718 4.43458973 -0.60582235 6.87378374 -4 10 C-2.8905928 6.51329166 -1.73662334 3.22515763 0 0 Z " fill="#76DCCA" transform="translate(84,60)"/>
<path d="M0 0 C1.21236328 0.01353516 1.21236328 0.01353516 2.44921875 0.02734375 C3.37154297 0.04474609 3.37154297 0.04474609 4.3125 0.0625 C4.3125 0.3925 4.3125 0.7225 4.3125 1.0625 C-3.1875 2.5625 -3.1875 2.5625 -10.6875 4.0625 C-7.4284026 0.49301238 -4.73606476 -0.06863862 0 0 Z " fill="#87E4BF" transform="translate(72.6875,22.9375)"/>
<path d="M0 0 C1.98 0.99 1.98 0.99 4 2 C4 6.29 4 10.58 4 15 C3.67 15 3.34 15 3 15 C2.92652344 14.00419922 2.92652344 14.00419922 2.8515625 12.98828125 C2.28874188 6.2887764 2.28874188 6.2887764 0 0 Z " fill="#5ADFCF" transform="translate(82,43)"/>
<path d="M0 0 C0.66 0.33 1.32 0.66 2 1 C0.19587357 4.26460973 -0.83394693 5.88929795 -4 8 C-4 6.35 -4 4.7 -4 3 C-3.01 3 -2.02 3 -1 3 C-0.67 2.01 -0.34 1.02 0 0 Z " fill="#4CBDCD" transform="translate(79,67)"/>
<path d="M0 0 C2.31 0 4.62 0 7 0 C6.01 1.98 5.02 3.96 4 6 C0 1.125 0 1.125 0 0 Z " fill="#DCFEF6" transform="translate(50,30)"/>
<path d="M0 0 C1.5 1.375 1.5 1.375 3 3 C3 3.66 3 4.32 3 5 C2.38125 5.144375 1.7625 5.28875 1.125 5.4375 C-1.03258322 5.93152225 -1.03258322 5.93152225 -3 7 C-2.67 5.68 -2.34 4.36 -2 3 C-1.34 3 -0.68 3 0 3 C0 2.01 0 1.02 0 0 Z " fill="#75E7BB" transform="translate(50,31)"/>
</svg>
