<?xml version="1.0" encoding="UTF-8"?>
<svg version="1.1" xmlns="http://www.w3.org/2000/svg" width="220" height="220">
<path d="M0 0 C1.79413888 1.55687534 3.56427694 3.14173657 5.3125 4.75 C5.80347168 5.19859375 6.29444336 5.6471875 6.80029297 6.109375 C26.47438613 24.27967607 39.81493065 49.02243993 41.51757812 75.99926758 C41.61489986 79.35661917 41.64178748 82.7038049 41.625 86.0625 C41.61936035 87.24948486 41.6137207 88.43646973 41.60791016 89.65942383 C41.18978298 119.9032664 27.49818126 145.3395504 6.1171875 166.1875 C-4.92117642 176.27269043 -17.83082362 183.36880565 -31.9375 188.125 C-32.64527588 188.3636377 -33.35305176 188.60227539 -34.08227539 188.84814453 C-61.34894521 197.53003802 -91.16008028 193.86413102 -116.34375 180.90234375 C-140.93593639 167.72475663 -160.32083552 145.02899052 -168.625 118.3125 C-169.3662998 115.80695983 -170.05197671 113.28443625 -170.6875 110.75 C-170.87151367 110.0286084 -171.05552734 109.3072168 -171.24511719 108.56396484 C-172.95129877 101.15074275 -173.07350979 93.83335334 -173.0625 86.25 C-173.06162384 85.58836853 -173.06074768 84.92673706 -173.05984497 84.24505615 C-172.93064282 54.61082097 -161.43207261 29.66938642 -140.6875 8.75 C-139.71296875 7.70199219 -139.71296875 7.70199219 -138.71875 6.6328125 C-103.95117365 -30.26673787 -38.60644064 -30.58647804 0 0 Z " fill="#FDFEFE" transform="translate(175.6875,26.25)"/>
<path d="M0 0 C6.33391165 4.96806377 11.63668076 10.59693639 15.31005859 17.8125 C15.31005859 18.4725 15.31005859 19.1325 15.31005859 19.8125 C15.97005859 19.8125 16.63005859 19.8125 17.31005859 19.8125 C17.51630859 18.9875 17.72255859 18.1625 17.93505859 17.3125 C21.88607141 7.25537647 30.44251284 0.26660706 40.18505859 -4.125 C51.8406802 -8.08791135 65.22632008 -7.5404419 76.31005859 -2.1875 C87.68193113 4.33840412 94.73252278 13.2316668 98.95458984 25.71875 C101.89073439 43.01296403 96.08209154 58.35642648 86.43115234 72.58203125 C84.4407362 75.3670558 82.3923377 78.09562155 80.31005859 80.8125 C79.70548828 81.62332031 79.10091797 82.43414062 78.47802734 83.26953125 C74.46361851 88.50093982 70.06795225 93.25689702 65.43505859 97.9375 C64.86311768 98.51870605 64.29117676 99.09991211 63.7019043 99.69873047 C59.55654756 103.8125 59.55654756 103.8125 57.31005859 103.8125 C57.10896484 104.34746094 56.90787109 104.88242188 56.70068359 105.43359375 C54.71760584 108.82599362 51.93701562 111.25336659 49.06005859 113.875 C48.44106689 114.44428223 47.8220752 115.01356445 47.18432617 115.60009766 C41.31924897 120.92659823 35.1623399 125.81462941 28.85839844 130.60644531 C27.42083693 131.72621098 26.02905109 132.90407594 24.64208984 134.0859375 C23.87251953 134.73820313 23.10294922 135.39046875 22.31005859 136.0625 C21.67068359 136.62453125 21.03130859 137.1865625 20.37255859 137.765625 C17.27802963 139.33633289 15.60260045 138.80349847 12.31005859 137.8125 C9.83569674 136.36677377 7.6955697 134.96584044 5.43505859 133.25 C4.84208984 132.84458984 4.24912109 132.43917969 3.63818359 132.02148438 C1.33018668 130.28516873 -0.43848024 128.69438183 -1.24560547 125.86376953 C-1.49311477 122.17968877 -0.85226144 120.10436761 0.95458984 116.85546875 C6.32802162 113.58386826 11.82915457 114.10892808 17.99755859 114.125 C20.45986701 114.10847444 22.9221395 114.08414355 25.38427734 114.05078125 C26.47313232 114.05118408 27.5619873 114.05158691 28.68383789 114.05200195 C31.46872752 114.0804747 31.46872752 114.0804747 33.31005859 111.8125 C33.50954416 109.32683457 33.58995602 106.9549925 33.57568359 104.46875 C33.57759705 103.74385376 33.5795105 103.01895752 33.58148193 102.27209473 C33.58284346 100.73884738 33.57914923 99.2055885 33.57080078 97.67236328 C33.56010037 95.32167741 33.57069668 92.97175577 33.58349609 90.62109375 C33.58217449 89.13281081 33.57961209 87.64452834 33.57568359 86.15625 C33.57973206 85.45101196 33.58378052 84.74577393 33.58795166 84.01916504 C33.66283255 79.96648313 33.66283255 79.96648313 31.31005859 76.8125 C29.11618445 76.47480052 29.11618445 76.47480052 26.58349609 76.46875 C25.1584375 76.42427734 25.1584375 76.42427734 23.70458984 76.37890625 C22.20992187 76.34603516 22.20992187 76.34603516 20.68505859 76.3125 C13.94983923 76.16084605 7.75128237 75.91453107 1.31005859 73.8125 C0.03688437 71.26615155 0.15105949 69.39124155 0.09912109 66.54296875 C0.07076172 65.48916016 0.04240234 64.43535156 0.01318359 63.34960938 C-0.03862262 61.12841817 -0.08297493 58.90703978 -0.11962891 56.68554688 C-0.15056641 55.62787109 -0.18150391 54.57019531 -0.21337891 53.48046875 C-0.24310791 52.03063599 -0.24310791 52.03063599 -0.2734375 50.55151367 C-0.77332992 47.26412029 -1.6374583 45.42687214 -3.68994141 42.8125 C-7.15807178 40.89857788 -10.07071865 40.5713395 -13.99072266 40.6171875 C-15.45541992 40.62685547 -15.45541992 40.62685547 -16.94970703 40.63671875 C-17.95710938 40.65347656 -18.96451172 40.67023438 -20.00244141 40.6875 C-21.54254883 40.70103516 -21.54254883 40.70103516 -23.11376953 40.71484375 C-25.6394004 40.73833799 -28.1645495 40.77118869 -30.68994141 40.8125 C-31.78896932 44.10958376 -31.83138068 46.61883394 -31.86572266 50.08984375 C-31.88957031 51.32541016 -31.91341797 52.56097656 -31.93798828 53.83398438 C-31.98089001 56.44058948 -32.01217686 59.04741213 -32.03173828 61.65429688 C-32.05945312 62.89115234 -32.08716797 64.12800781 -32.11572266 65.40234375 C-32.13030518 66.53534912 -32.1448877 67.66835449 -32.15991211 68.83569336 C-32.79786006 72.41860418 -33.86941746 73.58931789 -36.68994141 75.8125 C-38.61181641 76.5078125 -38.61181641 76.5078125 -40.68994141 76.8125 C-41.52009766 76.99554688 -42.35025391 77.17859375 -43.20556641 77.3671875 C-46.39594112 77.74091711 -48.59731616 77.73471141 -51.68994141 76.8125 C-62.79147352 65.29347437 -67.21777136 46.69803319 -66.96728516 31.30859375 C-66.73981467 25.83911678 -65.43845721 21.54748205 -62.68994141 16.8125 C-62.26583984 16.04808594 -61.84173828 15.28367187 -61.40478516 14.49609375 C-55.17679642 4.24333235 -45.99943862 -2.8024222 -34.32666016 -5.79296875 C-22.5910698 -7.54896079 -10.01642555 -7.03841287 0 0 Z " fill="#29AADA" transform="translate(93.68994140625,54.1875)"/>
<path d="M0 0 C6.33391165 4.96806377 11.63668076 10.59693639 15.31005859 17.8125 C15.31005859 18.4725 15.31005859 19.1325 15.31005859 19.8125 C15.97005859 19.8125 16.63005859 19.8125 17.31005859 19.8125 C17.51630859 18.9875 17.72255859 18.1625 17.93505859 17.3125 C21.88607141 7.25537647 30.44251284 0.26660706 40.18505859 -4.125 C51.8406802 -8.08791135 65.22632008 -7.5404419 76.31005859 -2.1875 C87.68193113 4.33840412 94.73252278 13.2316668 98.95458984 25.71875 C101.89073439 43.01296403 96.08209154 58.35642648 86.43115234 72.58203125 C84.44070618 75.36709781 82.39295514 78.09602276 80.31005859 80.8125 C79.69388672 81.63492188 79.07771484 82.45734375 78.44287109 83.3046875 C72.97940474 90.40039277 66.72451094 96.59048122 60.31005859 102.8125 C60.31005859 99.20300368 60.81996684 98.98263919 63.24755859 96.5 C74.38454905 84.20856541 81.73056766 70.18909175 81.59130859 53.42578125 C81.19159391 48.29055783 79.76240854 44.30578592 77.31005859 39.8125 C76.95943359 39.16667969 76.60880859 38.52085938 76.24755859 37.85546875 C71.68929394 30.59073447 64.49959172 26.70638358 56.31005859 24.8125 C44.77117653 23.80093643 35.22013656 24.58519653 25.99755859 32.0625 C22.72009437 35.11484547 20.44806959 38.38336784 18.31787109 42.30859375 C17.81900391 43.05302734 17.81900391 43.05302734 17.31005859 43.8125 C16.65005859 43.8125 15.99005859 43.8125 15.31005859 43.8125 C14.08349609 42.08984375 14.08349609 42.08984375 12.68505859 39.75 C8.36261009 33.10410461 3.04051351 27.39758897 -4.82275391 25.26171875 C-16.20806917 23.47791595 -26.06195995 23.49537705 -36.04541016 29.76171875 C-39.85219346 32.71380329 -42.42496132 35.56856121 -44.68994141 39.8125 C-45.09857422 40.55113281 -45.50720703 41.28976563 -45.92822266 42.05078125 C-50.4193647 51.4806362 -49.71375393 62.02957713 -46.68994141 71.8125 C-46.34328583 73.47644675 -46.00317169 75.14193851 -45.68994141 76.8125 C-48.43994141 77.16015625 -48.43994141 77.16015625 -51.68994141 76.8125 C-53.81494141 74.49609375 -53.81494141 74.49609375 -55.68994141 71.25 C-56.02388916 70.67515869 -56.35783691 70.10031738 -56.7019043 69.50805664 C-64.62051008 55.41856885 -69.58925256 39.9173864 -66.00634766 23.72265625 C-65.0719021 21.26828266 -64.00768356 19.08262901 -62.68994141 16.8125 C-62.26583984 16.04808594 -61.84173828 15.28367187 -61.40478516 14.49609375 C-55.17679642 4.24333235 -45.99943862 -2.8024222 -34.32666016 -5.79296875 C-22.5910698 -7.54896079 -10.01642555 -7.03841287 0 0 Z " fill="#66EAB7" transform="translate(93.68994140625,54.1875)"/>
<path d="M0 0 C0.92296875 0.15726563 1.8459375 0.31453125 2.796875 0.4765625 C8.90189929 1.35266115 15.10016706 1.31773031 21.2578125 1.4296875 C22.20914063 1.460625 23.16046875 1.4915625 24.140625 1.5234375 C25.00204102 1.54325684 25.86345703 1.56307617 26.75097656 1.58349609 C29 2 29 2 30.77880859 3.06689453 C32.64692333 6.02405816 32.42796989 9.0169305 32.3984375 12.40625 C32.40130768 13.12735962 32.40417786 13.84846924 32.40713501 14.59143066 C32.40917452 16.11450995 32.40365247 17.6376155 32.39111328 19.16064453 C32.37505643 21.49180678 32.3909641 23.82123542 32.41015625 26.15234375 C32.4081738 27.63281633 32.40433007 29.11328782 32.3984375 30.59375 C32.40754654 31.63915955 32.40754654 31.63915955 32.4168396 32.70568848 C32.37678429 35.46221035 32.27284097 37.53917485 30.8515625 39.93969727 C28.17918359 41.47004294 26.04448997 41.36904086 22.9765625 41.37109375 C21.790625 41.38849609 20.6046875 41.40589844 19.3828125 41.42382812 C16.88542776 41.43291424 14.38802592 41.43814695 11.890625 41.43945312 C10.70210937 41.45814453 9.51359375 41.47683594 8.2890625 41.49609375 C6.66025146 41.49887329 6.66025146 41.49887329 4.99853516 41.50170898 C1.35509474 42.10716916 -0.33448476 43.50961189 -3 46 C-2.125 41.125 -2.125 41.125 -1 40 C1.14386657 39.84141158 3.29266838 39.74870702 5.44140625 39.68359375 C7.39916992 39.62075195 7.39916992 39.62075195 9.39648438 39.55664062 C10.7851533 39.51682392 12.17382522 39.47711175 13.5625 39.4375 C14.95509183 39.39432011 16.34767028 39.350706 17.74023438 39.30664062 C21.16004801 39.20014124 24.57993763 39.09813077 28 39 C28.33 38.34 28.66 37.68 29 37 C29.66 37 30.32 37 31 37 C31 26.77 31 16.54 31 6 C30.01 5.67 29.02 5.34 28 5 C28 4.34 28 3.68 28 3 C19.09 3 10.18 3 1 3 C0.67 2.01 0.34 1.02 0 0 Z " fill="#E1FDFE" transform="translate(96,128)"/>
<path d="M0 0 C0 0.99 0 1.98 0 3 C-3.37474145 5.24982763 -4.69105733 5.28078603 -8.65625 5.37890625 C-9.76097656 5.41306641 -10.86570312 5.44722656 -12.00390625 5.48242188 C-13.15761719 5.50884766 -14.31132813 5.53527344 -15.5 5.5625 C-17.78135575 5.62240152 -20.06261755 5.68603125 -22.34375 5.75390625 C-23.86258789 5.78979858 -23.86258789 5.78979858 -25.41210938 5.82641602 C-28.11576376 5.89857233 -28.11576376 5.89857233 -31 7 C-31.34646126 11.0303028 -31.34646126 11.0303028 -31 15 C-28.66169042 17.5404226 -28.66169042 17.5404226 -26 19 C-26.33 19.66 -26.66 20.32 -27 21 C-33.48443114 17.55928144 -33.48443114 17.55928144 -34.640625 14.0625 C-34.84114832 10.28120306 -34.36029268 8.5766347 -32.30859375 5.29296875 C-27.89280556 1.16472025 -20.94419929 2.29782647 -15.3125 2.3125 C-12.85019159 2.29597444 -10.3879191 2.27164355 -7.92578125 2.23828125 C-6.83692627 2.23868408 -5.74807129 2.23908691 -4.6262207 2.23950195 C-1.84133107 2.2679747 -1.84133107 2.2679747 0 0 Z " fill="#52ADCE" transform="translate(127,166)"/>
<path d="M0 0 C0.86689453 0.00386719 1.73378906 0.00773437 2.62695312 0.01171875 C3.97370117 0.04845703 3.97370117 0.04845703 5.34765625 0.0859375 C6.68860352 0.08787109 6.68860352 0.08787109 8.05664062 0.08984375 C12.58380794 0.15034042 16.30859174 0.32024621 20.41015625 2.4609375 C20.41015625 2.7909375 20.41015625 3.1209375 20.41015625 3.4609375 C19.66330566 3.45046387 18.91645508 3.43999023 18.14697266 3.42919922 C14.77640117 3.3877298 11.40588325 3.36164021 8.03515625 3.3359375 C6.85953125 3.31917969 5.68390625 3.30242187 4.47265625 3.28515625 C3.35117188 3.27871094 2.2296875 3.27226563 1.07421875 3.265625 C0.0373291 3.25515137 -0.99956055 3.24467773 -2.06787109 3.23388672 C-4.76092998 3.20478724 -4.76092998 3.20478724 -6.58984375 5.4609375 C-6.91281502 8.32496196 -6.91281502 8.32496196 -6.8984375 11.67578125 C-6.92357422 12.91908203 -6.94871094 14.16238281 -6.97460938 15.44335938 C-7.00971289 18.07612332 -7.04097455 20.70894134 -7.06835938 23.34179688 C-7.09478516 24.58638672 -7.12121094 25.83097656 -7.1484375 27.11328125 C-7.16189209 28.25788818 -7.17534668 29.40249512 -7.18920898 30.58178711 C-7.58984375 33.4609375 -7.58984375 33.4609375 -9.11743164 35.35766602 C-9.60332764 35.72174561 -10.08922363 36.0858252 -10.58984375 36.4609375 C-11.24984375 36.1309375 -11.90984375 35.8009375 -12.58984375 35.4609375 C-12.10249756 35.09540771 -11.61515137 34.72987793 -11.11303711 34.35327148 C-8.93036257 31.64163335 -9.2209591 29.63200646 -9.21875 26.18359375 C-9.19264648 24.33024414 -9.19264648 24.33024414 -9.16601562 22.43945312 C-9.15691472 19.83269298 -9.15169466 17.22591634 -9.15039062 14.61914062 C-9.13169922 13.38228516 -9.11300781 12.14542969 -9.09375 10.87109375 C-9.09189697 9.73808838 -9.09004395 8.60508301 -9.08813477 7.43774414 C-8.19375258 2.09467603 -5.29537335 -0.05542618 0 0 Z " fill="#CDF2F9" transform="translate(69.58984375,93.5390625)"/>
<path d="M0 0 C0.33 0 0.66 0 1 0 C1 1.98 1 3.96 1 6 C0.34 6 -0.32 6 -1 6 C-0.87625 7.08861328 -0.87625 7.08861328 -0.75 8.19921875 C-1.08258803 11.92524398 -2.43650272 13.13208646 -5 15.8125 C-5.81339844 16.67230469 -6.62679687 17.53210938 -7.46484375 18.41796875 C-8.30144531 19.27003906 -9.13804687 20.12210938 -10 21 C-10.78503906 21.80050781 -11.57007813 22.60101563 -12.37890625 23.42578125 C-14.23864422 25.29882683 -16.11060596 27.15693987 -18 29 C-18 25.39050368 -17.49009175 25.17013919 -15.0625 22.6875 C-11.65252067 18.95044102 -8.89698838 15.00319607 -6.1875 10.75 C-5.80279541 10.14760498 -5.41809082 9.54520996 -5.02172852 8.92456055 C-3.19078412 6.01716178 -1.45668321 3.1137567 0 0 Z " fill="#60E5C6" transform="translate(172,128)"/>
<path d="M0 0 C0.33 0.66 0.66 1.32 1 2 C-2.79255301 10.72929998 -8.20829156 18.49334413 -14 26 C-14.33 24.68 -14.66 23.36 -15 22 C-14.34 21.67 -13.68 21.34 -13 21 C-12.67 20.01 -12.34 19.02 -12 18 C-11.50886719 17.56042969 -11.01773438 17.12085938 -10.51171875 16.66796875 C-8.42180376 14.36204188 -8.27845405 12.35912265 -7.8125 9.3125 C-7.65394531 8.31863281 -7.49539062 7.32476562 -7.33203125 6.30078125 C-7.22246094 5.54152344 -7.11289063 4.78226563 -7 4 C-6.21625 3.896875 -5.4325 3.79375 -4.625 3.6875 C-1.66954819 3.22404978 -1.66954819 3.22404978 0 0 Z " fill="#2AAECE" transform="translate(173,124)"/>
<path d="M0 0 C3.95827235 -0.05785647 7.9164367 -0.09354717 11.875 -0.125 C13.00292969 -0.14175781 14.13085938 -0.15851563 15.29296875 -0.17578125 C16.36933594 -0.18222656 17.44570312 -0.18867188 18.5546875 -0.1953125 C19.54968262 -0.20578613 20.54467773 -0.21625977 21.56982422 -0.22705078 C24 0 24 0 26 2 C26.17510386 4.65291757 26.23155483 7.19986174 26.1953125 9.8515625 C26.1924826 10.62559418 26.18965271 11.39962585 26.18673706 12.19711304 C26.17552754 14.67323157 26.15042203 17.1489905 26.125 19.625 C26.11497118 21.30207812 26.10584516 22.97916189 26.09765625 24.65625 C26.07558574 28.77097223 26.04105102 32.88542511 26 37 C25.67 37 25.34 37 25 37 C24.98018066 36.01080566 24.96036133 35.02161133 24.93994141 34.00244141 C24.86396544 30.33827923 24.77523648 26.67451836 24.68261719 23.01074219 C24.64429415 21.42390862 24.60944712 19.83698719 24.578125 18.25 C24.53254569 15.97103434 24.47454162 13.69267532 24.4140625 11.4140625 C24.40251129 10.70255035 24.39096008 9.99103821 24.37905884 9.25796509 C24.36591761 5.17896343 24.36591761 5.17896343 22 2 C19.6754661 1.62948007 19.6754661 1.62948007 16.9921875 1.5859375 C16.00605469 1.54726562 15.01992187 1.50859375 14.00390625 1.46875 C12.97136719 1.4378125 11.93882813 1.406875 10.875 1.375 C9.83472656 1.33632812 8.79445313 1.29765625 7.72265625 1.2578125 C5.14861689 1.16335234 2.57458845 1.07778786 0 1 C0 0.67 0 0.34 0 0 Z " fill="#47A6CB" transform="translate(103,129)"/>
<path d="M0 0 C0.66 0.33 1.32 0.66 2 1 C-4.75 5 -4.75 5 -7 5 C-7.04125 5.556875 -7.0825 6.11375 -7.125 6.6875 C-8.2333626 9.61674401 -10.08377968 10.83045923 -12.51953125 12.69921875 C-14.23374662 14.06236423 -14.23374662 14.06236423 -15.5625 16.75 C-17 19 -17 19 -19.6875 19.8125 C-20.450625 19.874375 -21.21375 19.93625 -22 20 C-21.505 18.515 -21.505 18.515 -21 17 C-21 17.66 -21 18.32 -21 19 C-20.34 19 -19.68 19 -19 19 C-18.75507812 18.10539062 -18.51015625 17.21078125 -18.2578125 16.2890625 C-15.71967063 9.65205797 -9.77763565 4.64732005 -3.5625 1.375 C-2.386875 0.92125 -1.21125 0.4675 0 0 Z " fill="#2DB0C9" transform="translate(130,79)"/>
<path d="M0 0 C0 0.66 0 1.32 0 2 C0.99 2 1.98 2 3 2 C3 3.32 3 4.64 3 6 C0.07392619 6 -1.22585831 5.60716153 -3.875 4.5625 C-9.78626033 2.49111621 -15.78555178 2.27854559 -22 2 C-22 1.67 -22 1.34 -22 1 C-19.6460153 0.83034345 -17.29186616 0.6642065 -14.9375 0.5 C-13.62652344 0.4071875 -12.31554687 0.314375 -10.96484375 0.21875 C-7.29924005 0.0165098 -3.67009048 -0.0381804 0 0 Z " fill="#5CE2C3" transform="translate(95,76)"/>
<path d="M0 0 C3 2 3 2 4 5 C4.08106686 6.55421729 4.10756898 8.11167027 4.09765625 9.66796875 C4.09282227 11.00698242 4.09282227 11.00698242 4.08789062 12.37304688 C4.07951172 13.30181641 4.07113281 14.23058594 4.0625 15.1875 C4.05798828 16.12787109 4.05347656 17.06824219 4.04882812 18.03710938 C4.03704626 20.35813712 4.02059558 22.67903644 4 25 C3.67 24.34 3.34 23.68 3 23 C2.34 23 1.68 23 1 23 C1.00523682 22.44538086 1.01047363 21.89076172 1.01586914 21.31933594 C1.03671031 18.79623557 1.04968282 16.27315336 1.0625 13.75 C1.07087891 12.87730469 1.07925781 12.00460938 1.08789062 11.10546875 C1.09111328 10.26113281 1.09433594 9.41679688 1.09765625 8.546875 C1.10289307 7.77182617 1.10812988 6.99677734 1.11352539 6.19824219 C1.00036998 4.00716402 0.60552448 2.10362139 0 0 Z " fill="#C9EFF7" transform="translate(90,97)"/>
<path d="M0 0 C0.92296875 0.15726563 1.8459375 0.31453125 2.796875 0.4765625 C8.90189929 1.35266115 15.10016706 1.31773031 21.2578125 1.4296875 C22.20914063 1.460625 23.16046875 1.4915625 24.140625 1.5234375 C25.00204102 1.54325684 25.86345703 1.56307617 26.75097656 1.58349609 C29.41549087 2.07694609 30.31592351 2.93030436 32 5 C31.67 5.66 31.34 6.32 31 7 C30.01 6.34 29.02 5.68 28 5 C28 4.34 28 3.68 28 3 C19.09 3 10.18 3 1 3 C0.67 2.01 0.34 1.02 0 0 Z " fill="#D6F8FD" transform="translate(96,128)"/>
<path d="M0 0 C0 0.33 0 0.66 0 1 C-1.46759766 1.05607422 -1.46759766 1.05607422 -2.96484375 1.11328125 C-9.66780342 1.44941787 -15.80813274 1.84820968 -22.125 4.30078125 C-24.69560639 5.25940322 -27.28752171 5.65224637 -30 6 C-21.1781505 -1.09324386 -10.72075257 -0.35913191 0 0 Z " fill="#7DE2BC" transform="translate(78,48)"/>
<path d="M0 0 C0.99 0.495 0.99 0.495 2 1 C2 2.65 2 4.3 2 6 C2.99 6 3.98 6 5 6 C5.226875 6.639375 5.45375 7.27875 5.6875 7.9375 C6.85250896 10.27193661 6.85250896 10.27193661 9.625 10.75 C10.40875 10.8325 11.1925 10.915 12 11 C8.86501708 12.85776765 6.62528568 13.20140476 3 13 C0.78145293 8.37802694 -0.38281159 5.23175837 0 0 Z " fill="#38ADD1" transform="translate(45,118)"/>
<path d="M0 0 C0.33 0.99 0.66 1.98 1 3 C0.030625 3.2475 -0.93875 3.495 -1.9375 3.75 C-2.948125 4.1625 -3.95875 4.575 -5 5 C-5.75243555 6.92638012 -5.75243555 6.92638012 -6 9 C-7.5625 10.75 -7.5625 10.75 -9 12 C-9.99 11.67 -10.98 11.34 -12 11 C-8.38748484 6.43951988 -5.01202555 2.98334854 0 0 Z " fill="#83E7C1" transform="translate(127,54)"/>
<path d="M0 0 C1.32 0.33 2.64 0.66 4 1 C2.52351062 2.33629746 1.0437367 3.66896671 -0.4375 5 C-1.26121094 5.7425 -2.08492187 6.485 -2.93359375 7.25 C-5 9 -5 9 -6 9 C-6 6.36 -6 3.72 -6 1 C-5.01 1.33 -4.02 1.66 -3 2 C-2.67 2 -2.34 2 -2 2 C-1.34 2 -0.68 2 0 2 C0 1.34 0 0.68 0 0 Z " fill="#3CAED2" transform="translate(134,171)"/>
<path d="M0 0 C0.33 0.66 0.66 1.32 1 2 C5.95 1.67 10.9 1.34 16 1 C12.29417301 3.47055133 10.25719417 4.16922616 5.875 4.5625 C4.96492188 4.64628906 4.05484375 4.73007813 3.1171875 4.81640625 C2.06917969 4.90728516 2.06917969 4.90728516 1 5 C0.67 3.35 0.34 1.7 0 0 Z " fill="#E1FDF9" transform="translate(41,129)"/>
<path d="M0 0 C1.24716797 0.02030273 1.24716797 0.02030273 2.51953125 0.04101562 C4.55497066 0.07610941 6.59007291 0.12990772 8.625 0.1875 C8.625 0.5175 8.625 0.8475 8.625 1.1875 C7.52800781 1.23648438 6.43101563 1.28546875 5.30078125 1.3359375 C3.84633075 1.41100591 2.39190484 1.48655197 0.9375 1.5625 C-0.1443457 1.60890625 -0.1443457 1.60890625 -1.24804688 1.65625 C-5.41289969 1.88446111 -8.49210376 2.57837183 -12.375 4.1875 C-13.365 3.8575 -14.355 3.5275 -15.375 3.1875 C-10.10776905 -0.05977345 -5.97550061 -0.18584093 0 0 Z " fill="#2DAFC6" transform="translate(77.375,77.8125)"/>
<path d="M0 0 C0.80859375 1.671875 0.80859375 1.671875 1 4 C-1.08984375 6.578125 -1.08984375 6.578125 -3.9375 9.25 C-4.87464844 10.14203125 -5.81179687 11.0340625 -6.77734375 11.953125 C-7.51082031 12.62859375 -8.24429688 13.3040625 -9 14 C-9 10.26161126 -8.11005385 9.67777231 -5.625 7 C-3.51259272 4.705039 -1.73869403 2.60804104 0 0 Z " fill="#6BD7CD" transform="translate(163,143)"/>
<path d="M0 0 C0 4.35251187 -2.06165511 5.92809398 -5 9 C-7.3125 9.875 -7.3125 9.875 -9 10 C-6.68116787 5.49115974 -3.93548431 3.06093224 0 0 Z " fill="#D5FAF3" transform="translate(157,153)"/>
<path d="M0 0 C0.99 0.33 1.98 0.66 3 1 C-1.455 4.465 -1.455 4.465 -6 8 C-6.33 6.68 -6.66 5.36 -7 4 C-4.69 3.34 -2.38 2.68 0 2 C0 1.34 0 0.68 0 0 Z " fill="#41A9CD" transform="translate(123,181)"/>
<path d="M0 0 C0.66 0.33 1.32 0.66 2 1 C0.02 3.31 -1.96 5.62 -4 8 C-4.33 6.68 -4.66 5.36 -5 4 C-3 1 -3 1 0 0 Z " fill="#74E3C3" transform="translate(169,138)"/>
<path d="M0 0 C2.6875 -0.3125 2.6875 -0.3125 6 0 C8.875 2.5 8.875 2.5 11 5 C10.67 5.66 10.34 6.32 10 7 C9.52949219 6.66226563 9.05898437 6.32453125 8.57421875 5.9765625 C7.95160156 5.53054687 7.32898438 5.08453125 6.6875 4.625 C6.07261719 4.18414062 5.45773438 3.74328125 4.82421875 3.2890625 C3.2347608 2.16589093 1.61937829 1.07958553 0 0 Z " fill="#5FE6C6" transform="translate(154,79)"/>
<path d="M0 0 C2.88437779 1.29299694 4.87219421 2.65941363 7 5 C5.25 5.6875 5.25 5.6875 3 6 C0.75 4.5625 0.75 4.5625 -1 3 C-0.67 2.01 -0.34 1.02 0 0 Z " fill="#75E7BB" transform="translate(173,55)"/>
<path d="M0 0 C1.2065625 0.0309375 1.2065625 0.0309375 2.4375 0.0625 C0.79580472 2.08304804 -0.87161778 4.08293058 -2.5625 6.0625 C-2.8925 6.0625 -3.2225 6.0625 -3.5625 6.0625 C-3.605221 4.39638095 -3.60313832 2.72867115 -3.5625 1.0625 C-2.5625 0.0625 -2.5625 0.0625 0 0 Z " fill="#47B9CA" transform="translate(148.5625,158.9375)"/>
<path d="M0 0 C0.33 0.66 0.66 1.32 1 2 C0.67 2.66 0.34 3.32 0 4 C0.66 4 1.32 4 2 4 C1 6 1 6 -0.9375 6.75 C-1.618125 6.8325 -2.29875 6.915 -3 7 C-3.66 6.34 -4.32 5.68 -5 5 C-3.35 3.35 -1.7 1.7 0 0 Z " fill="#79E8BC" transform="translate(41,58)"/>
<path d="M0 0 C1.6266848 0.28211877 3.25132896 0.57602375 4.875 0.875 C5.77992188 1.03742187 6.68484375 1.19984375 7.6171875 1.3671875 C10 2 10 2 12 4 C7.12335991 4.34833144 4.22949995 3.41685712 0 1 C0 0.67 0 0.34 0 0 Z " fill="#78E2B8" transform="translate(158,49)"/>
<path d="M0 0 C0 3.51716303 -0.82445585 4.37121748 -3 7 C-4.32 6.67 -5.64 6.34 -7 6 C-4.69 4.02 -2.38 2.04 0 0 Z " fill="#DBFBFB" transform="translate(147,163)"/>
<path d="M0 0 C0.33 0.66 0.66 1.32 1 2 C0.22265625 3.9453125 0.22265625 3.9453125 -0.9375 6.125 C-1.31777344 6.84945312 -1.69804687 7.57390625 -2.08984375 8.3203125 C-2.39019531 8.87460938 -2.69054687 9.42890625 -3 10 C-3.33 10 -3.66 10 -4 10 C-4.25 7.25 -4.25 7.25 -4 4 C-2 1.625 -2 1.625 0 0 Z " fill="#30B2CB" transform="translate(173,124)"/>
<path d="M0 0 C2.31 0.33 4.62 0.66 7 1 C6.67 2.65 6.34 4.3 6 6 C3.97945196 4.35830472 1.97956942 2.69088222 0 1 C0 0.67 0 0.34 0 0 Z " fill="#5EE5C8" transform="translate(100,85)"/>
</svg>
